<svg width="463" height="104" viewBox="0 0 463 104" fill="none" xmlns="http://www.w3.org/2000/svg">
<path d="M29.0739 73H17.3817V31.3312H29.0739V73ZM43.7512 41.8416H2.64213V31.3312H43.7512V41.8416ZM89.3635 73H77.6713V31.3312H89.3635V73ZM58.2673 73H46.5752V31.3312H58.2673V73ZM83.704 57.3275H49.6226V46.817H83.704V57.3275ZM104.79 73H93.0979V31.3312H104.79V73ZM130.102 73H96.2697V62.4895H130.102V73ZM129.169 57.2653H96.2697V46.817H129.169V57.2653ZM130.102 41.8416H96.2697V31.3312H130.102V41.8416Z" fill="#FDE776"/>
<path d="M301.295 73.6219C296.485 73.6219 292.36 72.7512 288.919 71.0098C285.477 69.227 282.845 66.7393 281.02 63.5468C279.196 60.3128 278.284 56.519 278.284 52.1656C278.284 47.8121 279.196 44.0391 281.02 40.8466C282.845 37.6126 285.477 35.1249 288.919 33.3835C292.36 31.6007 296.485 30.7092 301.295 30.7092C305.98 30.7092 309.981 31.4141 313.298 32.8238C316.656 34.2335 319.227 36.2651 321.01 38.9186C322.793 41.5722 323.684 44.7647 323.684 48.4962V49.5535H310.624V48.4962C310.624 46.1329 309.96 44.4537 308.634 43.4587C307.307 42.4221 304.923 41.9038 301.482 41.9038C298.662 41.9038 296.465 42.1941 294.889 42.7745C293.355 43.3135 292.277 44.3293 291.655 45.822C291.033 47.2731 290.722 49.3877 290.722 52.1656C290.722 54.902 291.033 57.0166 291.655 58.5092C292.277 60.0018 293.355 61.0383 294.889 61.6188C296.465 62.1578 298.662 62.4273 301.482 62.4273C304.923 62.4273 307.307 61.9298 308.634 60.9347C309.96 59.8982 310.624 58.1982 310.624 55.8349V54.7777H323.684V55.8349C323.684 59.525 322.793 62.7175 321.01 65.4125C319.227 68.0661 316.656 70.0977 313.298 71.5074C309.981 72.9171 305.98 73.6219 301.295 73.6219ZM338.457 73H326.765V31.3312H338.457V73ZM362.525 73H329.999V62.4895H362.525V73ZM386.656 73.6219C381.805 73.6219 377.804 72.8963 374.653 71.4452C371.543 69.9526 369.221 67.8588 367.687 65.1638C366.153 62.4273 365.386 59.214 365.386 55.524V31.3312H377.078V54.5911C377.078 56.5812 377.327 58.136 377.825 59.2555C378.322 60.375 379.255 61.1627 380.623 61.6188C382.033 62.0749 384.044 62.3029 386.656 62.3029C389.309 62.3029 391.32 62.0749 392.688 61.6188C394.057 61.1627 394.99 60.375 395.487 59.2555C395.985 58.136 396.233 56.5812 396.233 54.5911V31.3312H407.926V55.524C407.926 59.214 407.159 62.4273 405.624 65.1638C404.09 67.8588 401.748 69.9526 398.597 71.4452C395.487 72.8963 391.507 73.6219 386.656 73.6219ZM439.353 73H411.429V31.3312H437.923C440.949 31.3312 443.458 31.725 445.448 32.5128C447.438 33.2591 448.931 34.3786 449.926 35.8712C450.921 37.3638 451.418 39.2088 451.418 41.4063C451.418 44.0598 450.631 46.2573 449.055 47.9987C447.521 49.7401 444.847 50.6937 441.032 50.8595V51.4815C445.22 51.6473 448.309 52.6217 450.299 54.4045C452.331 56.1873 453.346 58.5299 453.346 61.4322C453.346 63.7541 452.87 65.7857 451.916 67.5271C450.962 69.2685 449.449 70.616 447.376 71.5696C445.344 72.5232 442.67 73 439.353 73ZM423.059 56.7056V62.4895H437.861C439.27 62.4895 440.224 62.3029 440.721 61.9298C441.26 61.5152 441.53 60.7274 441.53 59.5665C441.53 58.4055 441.281 57.6385 440.784 57.2653C440.286 56.8922 439.312 56.7056 437.861 56.7056H423.059ZM423.059 41.8416V47.128H436.679C437.881 47.128 438.69 46.9414 439.104 46.5683C439.519 46.1537 439.726 45.4695 439.726 44.5159C439.726 43.5623 439.457 42.8782 438.918 42.4636C438.42 42.049 437.57 41.8416 436.368 41.8416H423.059Z" fill="#FDE776"/>
<mask id="path-3-outside-1_36_56" maskUnits="userSpaceOnUse" x="124" y="13" width="161" height="72" fill="black">
<rect fill="white" x="124" y="13" width="161" height="72"/>
<path d="M160.271 41.6717C159.643 48.0072 159.33 55.0562 159.33 62.8187C159.33 70.5241 159.815 75.7181 160.785 78.4007C161.013 78.9144 161.127 79.5137 161.127 80.1986C161.127 80.9406 160.842 81.5399 160.271 81.9965C159.701 82.4532 159.13 82.71 158.559 82.7671H157.617C154.935 82.71 152.566 82.1963 150.511 81.226C148.513 80.2557 147.515 78.7146 147.515 76.6028C147.515 73.6918 147.258 72.2364 146.744 72.2364L146.145 72.7501C144.204 76.6313 141.721 79.0856 138.696 80.113C137.726 80.4555 136.813 80.6267 135.957 80.6267C133.845 80.6267 132.047 79.9132 130.563 78.4863C129.079 77.0594 128.023 75.1188 127.395 72.6645C126.196 68.3837 125.597 64.2742 125.597 60.3358C125.597 56.3405 125.711 52.9444 125.94 50.1476C126.168 47.3508 126.539 44.2687 127.053 40.9012C127.623 37.4765 128.451 34.3658 129.535 31.5691C130.677 28.7723 132.018 26.1753 133.559 23.7781C135.157 21.3808 137.184 19.4973 139.638 18.1275C142.149 16.7576 144.975 16.0727 148.114 16.0727C152.566 16.0727 155.134 16.9859 155.819 18.8124C156.219 19.7827 156.419 21.1811 156.419 23.0075C156.419 27.4025 155.391 29.5999 153.336 29.5999C152.652 29.5999 151.852 29.1433 150.939 28.2301C150.026 27.3168 148.77 26.8602 147.172 26.8602C145.631 26.8602 144.147 27.6022 142.72 29.0862C141.35 30.5702 140.351 32.4538 139.724 34.7368C138.582 38.9035 138.011 42.8418 138.011 46.5518C138.011 53.3439 138.867 57.9957 140.58 60.5071C141.493 61.8198 142.692 62.4762 144.176 62.4762C145.66 62.4762 146.716 61.7057 147.343 60.1646C148.028 58.5665 148.371 56.6544 148.371 54.4284C148.371 52.2024 147.971 49.7195 147.172 46.9798C146.43 44.2402 146.059 42.7847 146.059 42.6135C146.059 41.5861 146.544 40.7014 147.515 39.9594C150.14 38.1329 153.508 37.2197 157.617 37.2197C159.501 37.2197 160.443 37.9332 160.443 39.3601L160.271 41.6717ZM180.352 40.5587C184.29 38.0473 186.26 34.3944 186.26 29.5999C186.26 27.9447 185.889 26.4892 185.147 25.2335C184.405 23.9778 183.206 23.35 181.551 23.35C178.354 23.35 176.756 27.5737 176.756 36.0211C176.756 36.8202 176.813 38.0758 176.927 39.7882C177.042 40.7585 177.555 41.2436 178.469 41.2436C179.039 41.2436 179.667 41.0153 180.352 40.5587ZM193.537 41.9285C192.681 42.5564 192.253 43.4125 192.253 44.497C192.253 44.8395 192.281 45.0963 192.338 45.2675C193.423 52.288 195.135 59.1943 197.475 65.9865C198.217 68.1554 199.302 69.6965 200.729 70.6097C202.155 71.4658 202.869 72.5218 202.869 73.7775C202.869 75.7181 201.585 77.3162 199.016 78.5719C196.505 79.7705 194.165 80.3698 191.996 80.3698C189.656 80.3698 188.029 79.3995 187.116 77.4589C186.944 77.1735 186.859 77.0023 186.859 76.9452C185.261 73.8631 183.948 67.7558 182.921 58.6235C182.464 54.514 182.179 52.2024 182.064 51.6887C182.064 51.0608 181.665 50.7469 180.866 50.7469C179.268 50.7469 178.183 51.3462 177.612 52.5448C177.156 53.7435 176.927 56.6829 176.927 61.3632C176.927 66.0435 177.07 69.2684 177.356 71.0378C177.698 72.8072 177.869 73.9202 177.869 74.3768C177.869 76.4886 176.442 78.2295 173.588 79.5993C170.792 80.9692 168.166 81.6541 165.712 81.6541C163.771 81.6541 162.801 80.7123 162.801 78.8288L163.058 77.1165C164.485 66.5002 165.198 55.5414 165.198 44.2402L164.856 31.6547C164.856 30.2278 164.371 28.7438 163.4 27.2027C162.487 25.6616 162.03 24.463 162.03 23.6068C162.03 20.9242 164.428 18.7553 169.222 17.1001C174.017 15.4448 178.411 14.6172 182.407 14.6172C185.147 14.6172 187.658 14.9597 189.941 15.6446C192.281 16.2725 194.108 17.043 195.42 17.9562C196.79 18.8695 197.96 20.1822 198.931 21.8945C199.901 23.6068 200.386 25.6331 200.386 27.9732C200.386 33.6238 198.103 38.2756 193.537 41.9285ZM244.99 71.1234C245.961 71.8083 246.446 72.693 246.446 73.7775C246.446 75.8893 245.019 77.6587 242.165 79.0856C239.368 80.5125 236.771 81.226 234.374 81.226C232.491 81.226 231.121 80.7979 230.265 79.9418C229.58 79.2568 229.209 78.258 229.152 76.9452C229.094 75.5754 229.037 74.1199 228.98 72.5788C228.923 71.0378 228.866 69.6394 228.809 68.3837C228.809 67.128 228.552 66.0721 228.039 65.2159C227.525 64.3027 227.04 63.7605 226.583 63.5892C226.069 63.3609 224.642 63.2468 222.302 63.2468C220.019 63.2468 218.25 63.5036 216.994 64.0173C215.738 64.5881 214.54 67.2422 213.398 71.9795C213.113 73.1211 212.942 73.7489 212.885 73.8631C211.344 79.0571 207.605 81.6541 201.669 81.6541C198.872 81.6541 197.474 80.8265 197.474 79.1712C197.474 77.9726 197.93 76.6598 198.844 75.2329L199.357 74.4624C203.581 66.757 207.405 57.111 210.83 45.5244C214.312 33.8807 216.052 26.8032 216.052 24.2918C216.052 23.3215 215.881 22.4938 215.539 21.8089C215.253 21.0669 215.111 20.4962 215.111 20.0966C215.111 17.2428 217.565 15.8158 222.474 15.8158C225.499 15.8158 228.096 16.4152 230.265 17.6138C232.491 18.7553 233.889 20.5818 234.46 23.0932C236.857 41.9285 238.969 54.5996 240.795 61.1064C242.108 66.757 243.506 70.096 244.99 71.1234ZM223.843 39.1888C223.786 38.5039 223.587 38.1615 223.244 38.1615C223.073 38.1615 222.787 38.4183 222.388 38.932C220.048 45.0963 218.878 49.3485 218.878 51.6887C218.878 52.3736 219.106 52.8017 219.563 52.9729C220.019 53.1442 220.875 53.2298 222.131 53.2298C223.387 53.2298 224.271 53.0871 224.785 52.8017C225.356 52.4592 225.641 51.917 225.641 51.175C225.185 46.1522 224.671 42.4708 224.1 40.1306L223.843 39.1888ZM245.386 73.9487L245.472 73.1782C247.184 62.676 248.04 53.0015 248.04 44.1545C248.04 36.5633 247.555 30.9412 246.585 27.2883L246.157 25.4048C245.871 24.834 245.729 24.1491 245.729 23.35C245.729 21.2952 246.813 19.6115 248.982 18.2987C251.208 16.7005 254.661 15.9015 259.342 15.9015C264.022 15.9015 267.903 16.8147 270.985 18.6412C274.067 20.4105 276.465 22.8078 278.177 25.8328C281.545 31.7688 283.228 38.6752 283.228 46.5518C283.228 53.8005 282.144 60.1932 279.975 65.7296C278.833 68.7547 277.349 71.3517 275.523 73.5206C273.696 75.6895 271.328 77.4589 268.417 78.8288C265.563 80.1415 262.31 80.7979 258.657 80.7979C255.917 80.7979 253.463 80.4555 251.294 79.7705C249.182 79.1427 247.669 78.3722 246.756 77.4589C245.843 76.4886 245.386 75.3185 245.386 73.9487ZM270.044 45.0107C270.044 35.593 268.731 29.5428 266.105 26.8602C265.192 25.8899 264.336 25.4048 263.537 25.4048C262.11 25.4048 261.311 26.1182 261.14 27.5452C260.226 33.4241 259.77 42.0427 259.77 53.401C259.77 57.3393 259.912 61.1064 260.198 64.7022C260.198 65.9579 260.826 66.5858 262.081 66.5858C267.389 66.5858 270.044 59.3941 270.044 45.0107Z"/>
</mask>
<path d="M160.271 41.6717C159.643 48.0072 159.33 55.0562 159.33 62.8187C159.33 70.5241 159.815 75.7181 160.785 78.4007C161.013 78.9144 161.127 79.5137 161.127 80.1986C161.127 80.9406 160.842 81.5399 160.271 81.9965C159.701 82.4532 159.13 82.71 158.559 82.7671H157.617C154.935 82.71 152.566 82.1963 150.511 81.226C148.513 80.2557 147.515 78.7146 147.515 76.6028C147.515 73.6918 147.258 72.2364 146.744 72.2364L146.145 72.7501C144.204 76.6313 141.721 79.0856 138.696 80.113C137.726 80.4555 136.813 80.6267 135.957 80.6267C133.845 80.6267 132.047 79.9132 130.563 78.4863C129.079 77.0594 128.023 75.1188 127.395 72.6645C126.196 68.3837 125.597 64.2742 125.597 60.3358C125.597 56.3405 125.711 52.9444 125.94 50.1476C126.168 47.3508 126.539 44.2687 127.053 40.9012C127.623 37.4765 128.451 34.3658 129.535 31.5691C130.677 28.7723 132.018 26.1753 133.559 23.7781C135.157 21.3808 137.184 19.4973 139.638 18.1275C142.149 16.7576 144.975 16.0727 148.114 16.0727C152.566 16.0727 155.134 16.9859 155.819 18.8124C156.219 19.7827 156.419 21.1811 156.419 23.0075C156.419 27.4025 155.391 29.5999 153.336 29.5999C152.652 29.5999 151.852 29.1433 150.939 28.2301C150.026 27.3168 148.77 26.8602 147.172 26.8602C145.631 26.8602 144.147 27.6022 142.72 29.0862C141.35 30.5702 140.351 32.4538 139.724 34.7368C138.582 38.9035 138.011 42.8418 138.011 46.5518C138.011 53.3439 138.867 57.9957 140.58 60.5071C141.493 61.8198 142.692 62.4762 144.176 62.4762C145.66 62.4762 146.716 61.7057 147.343 60.1646C148.028 58.5665 148.371 56.6544 148.371 54.4284C148.371 52.2024 147.971 49.7195 147.172 46.9798C146.43 44.2402 146.059 42.7847 146.059 42.6135C146.059 41.5861 146.544 40.7014 147.515 39.9594C150.14 38.1329 153.508 37.2197 157.617 37.2197C159.501 37.2197 160.443 37.9332 160.443 39.3601L160.271 41.6717ZM180.352 40.5587C184.29 38.0473 186.26 34.3944 186.26 29.5999C186.26 27.9447 185.889 26.4892 185.147 25.2335C184.405 23.9778 183.206 23.35 181.551 23.35C178.354 23.35 176.756 27.5737 176.756 36.0211C176.756 36.8202 176.813 38.0758 176.927 39.7882C177.042 40.7585 177.555 41.2436 178.469 41.2436C179.039 41.2436 179.667 41.0153 180.352 40.5587ZM193.537 41.9285C192.681 42.5564 192.253 43.4125 192.253 44.497C192.253 44.8395 192.281 45.0963 192.338 45.2675C193.423 52.288 195.135 59.1943 197.475 65.9865C198.217 68.1554 199.302 69.6965 200.729 70.6097C202.155 71.4658 202.869 72.5218 202.869 73.7775C202.869 75.7181 201.585 77.3162 199.016 78.5719C196.505 79.7705 194.165 80.3698 191.996 80.3698C189.656 80.3698 188.029 79.3995 187.116 77.4589C186.944 77.1735 186.859 77.0023 186.859 76.9452C185.261 73.8631 183.948 67.7558 182.921 58.6235C182.464 54.514 182.179 52.2024 182.064 51.6887C182.064 51.0608 181.665 50.7469 180.866 50.7469C179.268 50.7469 178.183 51.3462 177.612 52.5448C177.156 53.7435 176.927 56.6829 176.927 61.3632C176.927 66.0435 177.07 69.2684 177.356 71.0378C177.698 72.8072 177.869 73.9202 177.869 74.3768C177.869 76.4886 176.442 78.2295 173.588 79.5993C170.792 80.9692 168.166 81.6541 165.712 81.6541C163.771 81.6541 162.801 80.7123 162.801 78.8288L163.058 77.1165C164.485 66.5002 165.198 55.5414 165.198 44.2402L164.856 31.6547C164.856 30.2278 164.371 28.7438 163.4 27.2027C162.487 25.6616 162.03 24.463 162.03 23.6068C162.03 20.9242 164.428 18.7553 169.222 17.1001C174.017 15.4448 178.411 14.6172 182.407 14.6172C185.147 14.6172 187.658 14.9597 189.941 15.6446C192.281 16.2725 194.108 17.043 195.42 17.9562C196.79 18.8695 197.96 20.1822 198.931 21.8945C199.901 23.6068 200.386 25.6331 200.386 27.9732C200.386 33.6238 198.103 38.2756 193.537 41.9285ZM244.99 71.1234C245.961 71.8083 246.446 72.693 246.446 73.7775C246.446 75.8893 245.019 77.6587 242.165 79.0856C239.368 80.5125 236.771 81.226 234.374 81.226C232.491 81.226 231.121 80.7979 230.265 79.9418C229.58 79.2568 229.209 78.258 229.152 76.9452C229.094 75.5754 229.037 74.1199 228.98 72.5788C228.923 71.0378 228.866 69.6394 228.809 68.3837C228.809 67.128 228.552 66.0721 228.039 65.2159C227.525 64.3027 227.04 63.7605 226.583 63.5892C226.069 63.3609 224.642 63.2468 222.302 63.2468C220.019 63.2468 218.25 63.5036 216.994 64.0173C215.738 64.5881 214.54 67.2422 213.398 71.9795C213.113 73.1211 212.942 73.7489 212.885 73.8631C211.344 79.0571 207.605 81.6541 201.669 81.6541C198.872 81.6541 197.474 80.8265 197.474 79.1712C197.474 77.9726 197.93 76.6598 198.844 75.2329L199.357 74.4624C203.581 66.757 207.405 57.111 210.83 45.5244C214.312 33.8807 216.052 26.8032 216.052 24.2918C216.052 23.3215 215.881 22.4938 215.539 21.8089C215.253 21.0669 215.111 20.4962 215.111 20.0966C215.111 17.2428 217.565 15.8158 222.474 15.8158C225.499 15.8158 228.096 16.4152 230.265 17.6138C232.491 18.7553 233.889 20.5818 234.46 23.0932C236.857 41.9285 238.969 54.5996 240.795 61.1064C242.108 66.757 243.506 70.096 244.99 71.1234ZM223.843 39.1888C223.786 38.5039 223.587 38.1615 223.244 38.1615C223.073 38.1615 222.787 38.4183 222.388 38.932C220.048 45.0963 218.878 49.3485 218.878 51.6887C218.878 52.3736 219.106 52.8017 219.563 52.9729C220.019 53.1442 220.875 53.2298 222.131 53.2298C223.387 53.2298 224.271 53.0871 224.785 52.8017C225.356 52.4592 225.641 51.917 225.641 51.175C225.185 46.1522 224.671 42.4708 224.1 40.1306L223.843 39.1888ZM245.386 73.9487L245.472 73.1782C247.184 62.676 248.04 53.0015 248.04 44.1545C248.04 36.5633 247.555 30.9412 246.585 27.2883L246.157 25.4048C245.871 24.834 245.729 24.1491 245.729 23.35C245.729 21.2952 246.813 19.6115 248.982 18.2987C251.208 16.7005 254.661 15.9015 259.342 15.9015C264.022 15.9015 267.903 16.8147 270.985 18.6412C274.067 20.4105 276.465 22.8078 278.177 25.8328C281.545 31.7688 283.228 38.6752 283.228 46.5518C283.228 53.8005 282.144 60.1932 279.975 65.7296C278.833 68.7547 277.349 71.3517 275.523 73.5206C273.696 75.6895 271.328 77.4589 268.417 78.8288C265.563 80.1415 262.31 80.7979 258.657 80.7979C255.917 80.7979 253.463 80.4555 251.294 79.7705C249.182 79.1427 247.669 78.3722 246.756 77.4589C245.843 76.4886 245.386 75.3185 245.386 73.9487ZM270.044 45.0107C270.044 35.593 268.731 29.5428 266.105 26.8602C265.192 25.8899 264.336 25.4048 263.537 25.4048C262.11 25.4048 261.311 26.1182 261.14 27.5452C260.226 33.4241 259.77 42.0427 259.77 53.401C259.77 57.3393 259.912 61.1064 260.198 64.7022C260.198 65.9579 260.826 66.5858 262.081 66.5858C267.389 66.5858 270.044 59.3941 270.044 45.0107Z" fill="#2B3143"/>
<path d="M160.271 41.6717L161.764 41.8196L161.766 41.8011L161.767 41.7825L160.271 41.6717ZM160.785 78.4007L159.374 78.9109L159.393 78.9611L159.414 79.0099L160.785 78.4007ZM160.271 81.9965L159.334 80.8252H159.334L160.271 81.9965ZM158.559 82.7671V84.2671H158.634L158.708 84.2596L158.559 82.7671ZM157.617 82.7671L157.585 84.2667L157.601 84.2671H157.617V82.7671ZM150.511 81.226L149.856 82.5753L149.863 82.5789L149.871 82.5824L150.511 81.226ZM146.744 72.2364V70.7364H146.189L145.768 71.0975L146.744 72.2364ZM146.145 72.7501L145.169 71.6112L144.939 71.8083L144.803 72.0793L146.145 72.7501ZM138.696 80.113L138.214 78.6927L138.205 78.6955L138.197 78.6985L138.696 80.113ZM130.563 78.4863L131.602 77.4051V77.4051L130.563 78.4863ZM127.395 72.6645L128.848 72.2927L128.844 72.2763L128.839 72.26L127.395 72.6645ZM125.94 50.1476L124.444 50.0256L125.94 50.1476ZM127.053 40.9012L125.573 40.6546L125.571 40.6647L125.57 40.675L127.053 40.9012ZM129.535 31.5691L128.147 31.0022L128.142 31.0145L128.137 31.0268L129.535 31.5691ZM133.559 23.7781L132.311 22.946L132.304 22.9564L132.298 22.9669L133.559 23.7781ZM139.638 18.1275L138.92 16.8106L138.913 16.8141L138.907 16.8177L139.638 18.1275ZM155.819 18.8124L154.415 19.3391L154.423 19.3614L154.432 19.3835L155.819 18.8124ZM150.939 28.2301L152 27.1694V27.1694L150.939 28.2301ZM142.72 29.0862L141.639 28.0466L141.628 28.0576L141.618 28.0688L142.72 29.0862ZM139.724 34.7368L138.277 34.3391L138.277 34.3405L139.724 34.7368ZM140.58 60.5071L139.34 61.3521L139.348 61.3637L140.58 60.5071ZM147.343 60.1646L145.965 59.5737L145.959 59.5862L145.954 59.5987L147.343 60.1646ZM147.172 46.9798L145.724 47.372L145.728 47.3859L145.732 47.3998L147.172 46.9798ZM147.515 39.9594L146.658 38.728L146.63 38.7473L146.603 38.7678L147.515 39.9594ZM160.443 39.3601L161.938 39.4709L161.943 39.4156V39.3601H160.443ZM160.271 41.6717L158.779 41.5238C158.145 47.9177 157.83 55.0171 157.83 62.8187H159.33H160.83C160.83 55.0954 161.142 48.0967 161.764 41.8196L160.271 41.6717ZM159.33 62.8187H157.83C157.83 70.4976 158.302 75.9465 159.374 78.9109L160.785 78.4007L162.196 77.8905C161.327 75.4896 160.83 70.5506 160.83 62.8187H159.33ZM160.785 78.4007L159.414 79.0099C159.541 79.2947 159.627 79.6788 159.627 80.1986H161.127H162.627C162.627 79.3486 162.486 78.5341 162.156 77.7915L160.785 78.4007ZM161.127 80.1986H159.627C159.627 80.493 159.543 80.6583 159.334 80.8252L160.271 81.9965L161.208 83.1678C162.141 82.4216 162.627 81.3883 162.627 80.1986H161.127ZM160.271 81.9965L159.334 80.8252C158.928 81.1502 158.623 81.2532 158.41 81.2745L158.559 82.7671L158.708 84.2596C159.637 84.1668 160.473 83.7561 161.208 83.1678L160.271 81.9965ZM158.559 82.7671V81.2671H157.617V82.7671V84.2671H158.559V82.7671ZM157.617 82.7671L157.649 81.2674C155.14 81.214 152.985 80.7352 151.152 79.8696L150.511 81.226L149.871 82.5824C152.147 83.6574 154.73 84.206 157.585 84.2667L157.617 82.7671ZM150.511 81.226L151.166 79.8767C150.362 79.486 149.845 79.0239 149.522 78.5266C149.203 78.0339 149.015 77.4137 149.015 76.6028H147.515H146.015C146.015 77.9037 146.326 79.11 147.005 80.1583C147.682 81.2021 148.663 81.9957 149.856 82.5753L150.511 81.226ZM147.515 76.6028H149.015C149.015 75.1266 148.951 73.9284 148.799 73.0673C148.726 72.6512 148.613 72.1963 148.407 71.8074C148.219 71.4523 147.713 70.7364 146.744 70.7364V72.2364V73.7364C146.422 73.7364 146.156 73.6124 145.981 73.4705C145.828 73.3467 145.765 73.2289 145.755 73.2111C145.742 73.1861 145.79 73.277 145.845 73.5887C145.95 74.1831 146.015 75.168 146.015 76.6028H147.515ZM146.744 72.2364L145.768 71.0975L145.169 71.6112L146.145 72.7501L147.121 73.889L147.72 73.3753L146.744 72.2364ZM146.145 72.7501L144.803 72.0793C142.974 75.7369 140.747 77.8323 138.214 78.6927L138.696 80.113L139.179 81.5333C142.695 80.3389 145.434 77.5257 147.486 73.4209L146.145 72.7501ZM138.696 80.113L138.197 78.6985C137.356 78.9955 136.612 79.1267 135.957 79.1267V80.6267V82.1267C137.013 82.1267 138.096 81.9155 139.195 81.5275L138.696 80.113ZM135.957 80.6267V79.1267C134.221 79.1267 132.799 78.5557 131.602 77.4051L130.563 78.4863L129.523 79.5676C131.294 81.2708 133.468 82.1267 135.957 82.1267V80.6267ZM130.563 78.4863L131.602 77.4051C130.361 76.2117 129.423 74.5389 128.848 72.2927L127.395 72.6645L125.942 73.0362C126.623 75.6986 127.796 77.907 129.523 79.5676L130.563 78.4863ZM127.395 72.6645L128.839 72.26C127.673 68.0943 127.097 64.1212 127.097 60.3358H125.597H124.097C124.097 64.4271 124.72 68.6731 125.951 73.0689L127.395 72.6645ZM125.597 60.3358H127.097C127.097 56.3657 127.211 53.0129 127.435 50.2697L125.94 50.1476L124.444 50.0256C124.212 52.8759 124.097 56.3152 124.097 60.3358H125.597ZM125.94 50.1476L127.435 50.2697C127.659 47.5142 128.026 44.4673 128.535 41.1273L127.053 40.9012L125.57 40.675C125.052 44.0701 124.676 47.1875 124.444 50.0256L125.94 50.1476ZM127.053 40.9012L128.532 41.1478C129.089 37.8088 129.892 34.7991 130.934 32.1114L129.535 31.5691L128.137 31.0268C127.01 33.9326 126.158 37.1443 125.573 40.6546L127.053 40.9012ZM129.535 31.5691L130.924 32.1359C132.033 29.4192 133.333 26.9046 134.821 24.5892L133.559 23.7781L132.298 22.9669C130.704 25.446 129.321 28.1254 128.147 31.0022L129.535 31.5691ZM133.559 23.7781L134.807 24.6101C136.277 22.4058 138.128 20.6881 140.369 19.4373L139.638 18.1275L138.907 16.8177C136.239 18.3065 134.038 20.3559 132.311 22.946L133.559 23.7781ZM139.638 18.1275L140.356 19.4443C142.626 18.2061 145.201 17.5727 148.114 17.5727V16.0727V14.5727C144.749 14.5727 141.672 15.3092 138.92 16.8106L139.638 18.1275ZM148.114 16.0727V17.5727C150.263 17.5727 151.824 17.7965 152.877 18.1709C153.917 18.5409 154.282 18.9855 154.415 19.3391L155.819 18.8124L157.224 18.2857C156.671 16.8128 155.41 15.8876 153.882 15.3443C152.366 14.8055 150.417 14.5727 148.114 14.5727V16.0727ZM155.819 18.8124L154.432 19.3835C154.721 20.0856 154.919 21.2535 154.919 23.0075H156.419H157.919C157.919 21.1087 157.716 19.4798 157.206 18.2413L155.819 18.8124ZM156.419 23.0075H154.919C154.919 25.1355 154.662 26.5184 154.289 27.3165C154.112 27.6963 153.938 27.8784 153.814 27.9665C153.705 28.0443 153.566 28.0999 153.336 28.0999V29.5999V31.0999C154.134 31.0999 154.894 30.8809 155.556 30.4093C156.203 29.948 156.671 29.3061 157.007 28.5871C157.661 27.1878 157.919 25.2745 157.919 23.0075H156.419ZM153.336 29.5999V28.0999C153.281 28.0999 152.854 28.0239 152 27.1694L150.939 28.2301L149.879 29.2907C150.851 30.2627 152.022 31.0999 153.336 31.0999V29.5999ZM150.939 28.2301L152 27.1694C150.742 25.9112 149.068 25.3602 147.172 25.3602V26.8602V28.3602C148.473 28.3602 149.31 28.7225 149.879 29.2907L150.939 28.2301ZM147.172 26.8602V25.3602C145.1 25.3602 143.25 26.3711 141.639 28.0466L142.72 29.0862L143.801 30.1259C145.044 28.8334 146.162 28.3602 147.172 28.3602V26.8602ZM142.72 29.0862L141.618 28.0688C140.06 29.7569 138.958 31.8648 138.277 34.3391L139.724 34.7368L141.17 35.1346C141.745 33.0428 142.641 31.3835 143.822 30.1037L142.72 29.0862ZM139.724 34.7368L138.277 34.3405C137.106 38.6156 136.511 42.688 136.511 46.5518H138.011H139.511C139.511 42.9955 140.058 39.1913 141.17 35.1332L139.724 34.7368ZM138.011 46.5518H136.511C136.511 50.0032 136.728 52.9614 137.178 55.4062C137.625 57.8353 138.319 59.8546 139.34 61.3521L140.58 60.5071L141.819 59.6621C141.128 58.6481 140.538 57.0859 140.129 54.8632C139.722 52.6562 139.511 49.8925 139.511 46.5518H138.011ZM140.58 60.5071L139.348 61.3637C140.516 63.0427 142.157 63.9762 144.176 63.9762V62.4762V60.9762C143.226 60.9762 142.47 60.597 141.811 59.6505L140.58 60.5071ZM144.176 62.4762V63.9762C145.191 63.9762 146.146 63.7074 146.965 63.11C147.772 62.5213 148.342 61.6895 148.732 60.7306L147.343 60.1646L145.954 59.5987C145.717 60.1809 145.445 60.5048 145.196 60.6866C144.959 60.8598 144.645 60.9762 144.176 60.9762V62.4762ZM147.343 60.1646L148.722 60.7555C149.506 58.9262 149.871 56.8029 149.871 54.4284H148.371H146.871C146.871 56.5059 146.55 58.2067 145.965 59.5737L147.343 60.1646ZM148.371 54.4284H149.871C149.871 52.0268 149.44 49.3996 148.612 46.5598L147.172 46.9798L145.732 47.3998C146.502 50.0394 146.871 52.378 146.871 54.4284H148.371ZM147.172 46.9798L148.62 46.5877C148.25 45.22 147.974 44.1797 147.791 43.463C147.699 43.1034 147.633 42.8341 147.591 42.6491C147.57 42.5556 147.557 42.4948 147.551 42.4601C147.535 42.3777 147.559 42.4723 147.559 42.6135H146.059H144.559C144.559 42.7974 144.595 42.975 144.602 43.0156C144.619 43.104 144.641 43.2064 144.666 43.3162C144.717 43.538 144.79 43.8359 144.884 44.204C145.072 44.9427 145.353 46 145.724 47.372L147.172 46.9798ZM146.059 42.6135H147.559C147.559 42.1443 147.748 41.6694 148.426 41.1509L147.515 39.9594L146.603 38.7678C145.341 39.7334 144.559 41.0279 144.559 42.6135H146.059ZM147.515 39.9594L148.371 41.1907C150.682 39.583 153.727 38.7197 157.617 38.7197V37.2197V35.7197C153.288 35.7197 149.598 36.6828 146.658 38.728L147.515 39.9594ZM157.617 37.2197V38.7197C158.412 38.7197 158.734 38.8778 158.83 38.9504C158.865 38.9763 158.879 38.9965 158.893 39.0278C158.911 39.0678 158.943 39.1666 158.943 39.3601H160.443H161.943C161.943 38.2863 161.566 37.2595 160.642 36.5592C159.796 35.9184 158.706 35.7197 157.617 35.7197V37.2197ZM160.443 39.3601L158.947 39.2493L158.775 41.5609L160.271 41.6717L161.767 41.7825L161.938 39.4709L160.443 39.3601ZM180.352 40.5587L179.546 39.294L179.533 39.3022L179.52 39.3106L180.352 40.5587ZM185.147 25.2335L186.438 24.4704V24.4704L185.147 25.2335ZM176.927 39.7882L175.431 39.8879L175.433 39.9258L175.438 39.9634L176.927 39.7882ZM193.537 41.9285L194.424 43.1381L194.449 43.1195L194.474 43.0998L193.537 41.9285ZM192.338 45.2675L193.821 45.0385L193.801 44.9134L193.761 44.7932L192.338 45.2675ZM197.475 65.9865L198.894 65.5009L198.893 65.4978L197.475 65.9865ZM200.729 70.6097L199.92 71.8731L199.938 71.8848L199.957 71.8959L200.729 70.6097ZM199.016 78.5719L199.662 79.9257L199.675 79.9195L199.016 78.5719ZM187.116 77.4589L188.473 76.8202L188.441 76.7519L188.402 76.6872L187.116 77.4589ZM186.859 76.9452H188.359V76.5795L188.19 76.2548L186.859 76.9452ZM182.921 58.6235L181.43 58.7892L181.43 58.7912L182.921 58.6235ZM182.064 51.6887H180.564V51.8534L180.6 52.0141L182.064 51.6887ZM177.612 52.5448L176.258 51.8999L176.232 51.9544L176.211 52.0109L177.612 52.5448ZM177.356 71.0378L175.875 71.2766L175.878 71.2998L175.883 71.3228L177.356 71.0378ZM173.588 79.5993L172.939 78.247L172.929 78.2522L173.588 79.5993ZM162.801 78.8288L161.318 78.6063L161.301 78.7169V78.8288H162.801ZM163.058 77.1165L164.541 77.339L164.543 77.3276L164.544 77.3163L163.058 77.1165ZM165.198 44.2402H166.698V44.2197L166.698 44.1994L165.198 44.2402ZM164.856 31.6547H163.356V31.6751L163.356 31.6955L164.856 31.6547ZM163.4 27.2027L162.11 27.9674L162.12 27.9848L162.131 28.0019L163.4 27.2027ZM169.222 17.1001L168.733 15.6822V15.6822L169.222 17.1001ZM189.941 15.6446L189.51 17.0814L189.531 17.0877L189.552 17.0934L189.941 15.6446ZM195.42 17.9562L194.564 19.1876L194.576 19.1961L194.588 19.2043L195.42 17.9562ZM198.931 21.8945L200.236 21.155V21.155L198.931 21.8945ZM180.352 40.5587L181.159 41.8234C185.543 39.0279 187.76 34.8903 187.76 29.5999H186.26H184.76C184.76 33.8985 183.038 37.0668 179.546 39.294L180.352 40.5587ZM186.26 29.5999H187.76C187.76 27.7132 187.334 25.9871 186.438 24.4704L185.147 25.2335L183.855 25.9966C184.443 26.9914 184.76 28.1762 184.76 29.5999H186.26ZM185.147 25.2335L186.438 24.4704C185.385 22.6889 183.651 21.85 181.551 21.85V23.35V24.85C182.761 24.85 183.424 25.2668 183.855 25.9966L185.147 25.2335ZM181.551 23.35V21.85C180.387 21.85 179.335 22.247 178.462 23.0164C177.619 23.759 177.004 24.7912 176.552 25.9869C175.655 28.3577 175.256 31.7457 175.256 36.0211H176.756H178.256C178.256 31.8491 178.657 28.9015 179.358 27.0486C179.704 26.1325 180.089 25.5808 180.445 25.2675C180.77 24.981 181.117 24.85 181.551 24.85V23.35ZM176.756 36.0211H175.256C175.256 36.8733 175.316 38.1711 175.431 39.8879L176.927 39.7882L178.424 39.6884C178.31 37.9806 178.256 36.767 178.256 36.0211H176.756ZM176.927 39.7882L175.438 39.9634C175.52 40.6652 175.773 41.4077 176.368 41.9703C176.978 42.5459 177.745 42.7436 178.469 42.7436V41.2436V39.7436C178.371 39.7436 178.335 39.7304 178.341 39.7325C178.345 39.7337 178.357 39.7384 178.375 39.7487C178.393 39.7593 178.411 39.773 178.428 39.7892C178.465 39.8242 178.473 39.8482 178.465 39.8308C178.456 39.8091 178.433 39.7433 178.417 39.6129L176.927 39.7882ZM178.469 41.2436V42.7436C179.44 42.7436 180.357 42.3585 181.184 41.8068L180.352 40.5587L179.52 39.3106C178.978 39.6722 178.639 39.7436 178.469 39.7436V41.2436ZM193.537 41.9285L192.65 40.7189C191.399 41.6364 190.753 42.9468 190.753 44.497H192.253H193.753C193.753 43.8782 193.963 43.4763 194.424 43.1381L193.537 41.9285ZM192.253 44.497H190.753C190.753 44.8832 190.78 45.3361 190.915 45.7419L192.338 45.2675L193.761 44.7932C193.777 44.8405 193.772 44.8452 193.765 44.7808C193.758 44.7218 193.753 44.6295 193.753 44.497H192.253ZM192.338 45.2675L190.856 45.4965C191.954 52.6063 193.688 59.5994 196.057 66.4751L197.475 65.9865L198.893 65.4978C196.582 58.7892 194.891 51.9697 193.821 45.0385L192.338 45.2675ZM197.475 65.9865L196.056 66.472C196.869 68.849 198.121 70.7218 199.92 71.8731L200.729 70.6097L201.537 69.3463C200.482 68.6711 199.565 67.4617 198.894 65.5009L197.475 65.9865ZM200.729 70.6097L199.957 71.8959C201.098 72.5809 201.369 73.2174 201.369 73.7775H202.869H204.369C204.369 71.8261 203.213 70.3508 201.5 69.3235L200.729 70.6097ZM202.869 73.7775H201.369C201.369 74.8921 200.686 76.0858 198.357 77.2243L199.016 78.5719L199.675 79.9195C202.483 78.5467 204.369 76.544 204.369 73.7775H202.869ZM199.016 78.5719L198.37 77.2182C196.005 78.3468 193.887 78.8698 191.996 78.8698V80.3698V81.8698C194.442 81.8698 197.004 81.1942 199.662 79.9256L199.016 78.5719ZM191.996 80.3698V78.8698C191.033 78.8698 190.321 78.6712 189.789 78.3539C189.265 78.0415 188.82 77.5572 188.473 76.8202L187.116 77.4589L185.758 78.0976C186.325 79.3013 187.149 80.2725 188.252 80.9303C189.347 81.5833 190.619 81.8698 191.996 81.8698V80.3698ZM187.116 77.4589L188.402 76.6872C188.324 76.5572 188.282 76.4809 188.265 76.4456C188.255 76.4266 188.264 76.4428 188.279 76.4828C188.287 76.5033 188.303 76.5474 188.318 76.6082C188.326 76.6396 188.335 76.6826 188.343 76.7348C188.351 76.7857 188.359 76.8579 188.359 76.9452H186.859H185.359C185.359 77.2485 185.452 77.4865 185.47 77.5361C185.507 77.6332 185.548 77.7207 185.581 77.7873C185.649 77.9233 185.736 78.0752 185.829 78.2307L187.116 77.4589ZM186.859 76.9452L188.19 76.2548C186.737 73.4523 185.441 67.6121 184.411 58.4558L182.921 58.6235L181.43 58.7912C182.455 67.8996 183.784 74.2739 185.527 77.6357L186.859 76.9452ZM182.921 58.6235L184.411 58.4579C183.962 54.4101 183.666 51.9798 183.529 51.3633L182.064 51.6887L180.6 52.0141C180.691 52.4249 180.966 54.6179 181.43 58.7892L182.921 58.6235ZM182.064 51.6887H183.564C183.564 51.0342 183.338 50.3108 182.691 49.8029C182.114 49.3491 181.421 49.2469 180.866 49.2469V50.7469V52.2469C180.972 52.2469 181.014 52.2579 181.01 52.2568C181.004 52.2551 180.931 52.235 180.838 52.1618C180.737 52.0828 180.657 51.9762 180.609 51.8625C180.587 51.8105 180.575 51.7668 180.57 51.7363C180.564 51.7063 180.564 51.6893 180.564 51.6887H182.064ZM180.866 50.7469V49.2469C179.885 49.2469 178.948 49.4306 178.128 49.8835C177.292 50.3458 176.668 51.0392 176.258 51.8999L177.612 52.5448L178.967 53.1897C179.128 52.8519 179.331 52.6463 179.579 52.5093C179.844 52.3629 180.249 52.2469 180.866 52.2469V50.7469ZM177.612 52.5448L176.211 52.0109C175.899 52.8302 175.718 54.0561 175.603 55.5322C175.485 57.0562 175.427 59.0039 175.427 61.3632H176.927H178.427C178.427 59.0422 178.484 57.1801 178.594 55.7646C178.708 54.3012 178.87 53.4581 179.014 53.0788L177.612 52.5448ZM176.927 61.3632H175.427C175.427 66.0359 175.568 69.3733 175.875 71.2766L177.356 71.0378L178.836 70.7989C178.573 69.1635 178.427 66.0512 178.427 61.3632H176.927ZM177.356 71.0378L175.883 71.3228C176.235 73.1442 176.369 74.0963 176.369 74.3768H177.869H179.369C179.369 73.744 179.161 72.4701 178.828 70.7527L177.356 71.0378ZM177.869 74.3768H176.369C176.369 75.6465 175.565 76.9867 172.939 78.247L173.588 79.5993L174.238 80.9516C177.32 79.4723 179.369 77.3308 179.369 74.3768H177.869ZM173.588 79.5993L172.929 78.2522C170.284 79.5477 167.884 80.1541 165.712 80.1541V81.6541V83.1541C168.448 83.1541 171.3 82.3906 174.248 80.9464L173.588 79.5993ZM165.712 81.6541V80.1541C164.962 80.1541 164.677 79.9716 164.573 79.8714C164.478 79.7792 164.301 79.5278 164.301 78.8288H162.801H161.301C161.301 80.0133 161.609 81.1745 162.484 82.0241C163.351 82.8656 164.521 83.1541 165.712 83.1541V81.6541ZM162.801 78.8288L164.284 79.0513L164.541 77.339L163.058 77.1165L161.574 76.894L161.318 78.6063L162.801 78.8288ZM163.058 77.1165L164.544 77.3163C165.981 66.6302 166.698 55.6046 166.698 44.2402H165.198H163.698C163.698 55.4782 162.989 66.3701 161.571 76.9166L163.058 77.1165ZM165.198 44.2402L166.698 44.1994L166.355 31.6139L164.856 31.6547L163.356 31.6955L163.699 44.281L165.198 44.2402ZM164.856 31.6547H166.356C166.356 29.8765 165.749 28.1185 164.67 26.4035L163.4 27.2027L162.131 28.0019C162.992 29.3691 163.356 30.579 163.356 31.6547H164.856ZM163.4 27.2027L164.691 26.438C163.795 24.9262 163.53 24.0293 163.53 23.6068H162.03H160.53C160.53 24.8967 161.179 26.397 162.11 27.9674L163.4 27.2027ZM162.03 23.6068H163.53C163.53 22.7754 163.88 21.9439 164.835 21.0805C165.823 20.1867 167.409 19.313 169.712 18.518L169.222 17.1001L168.733 15.6822C166.241 16.5424 164.231 17.5807 162.822 18.8559C161.379 20.1614 160.53 21.7556 160.53 23.6068H162.03ZM169.222 17.1001L169.712 18.518C174.389 16.9031 178.616 16.1172 182.407 16.1172V14.6172V13.1172C178.207 13.1172 173.644 13.9866 168.733 15.6822L169.222 17.1001ZM182.407 14.6172V16.1172C185.022 16.1172 187.386 16.4441 189.51 17.0814L189.941 15.6446L190.372 14.2079C187.93 13.4753 185.271 13.1172 182.407 13.1172V14.6172ZM189.941 15.6446L189.552 17.0934C191.802 17.6971 193.447 18.4105 194.564 19.1876L195.42 17.9562L196.277 16.7249C194.769 15.6755 192.76 14.8479 190.33 14.1959L189.941 15.6446ZM195.42 17.9562L194.588 19.2043C195.728 19.9643 196.749 21.0864 197.626 22.6341L198.931 21.8945L200.236 21.155C199.172 19.2781 197.852 17.7746 196.252 16.7082L195.42 17.9562ZM198.931 21.8945L197.626 22.6341C198.446 24.0817 198.886 25.8432 198.886 27.9732H200.386H201.886C201.886 25.423 201.356 23.132 200.236 21.155L198.931 21.8945ZM200.386 27.9732H198.886C198.886 33.1501 196.825 37.3775 192.6 40.7572L193.537 41.9285L194.474 43.0998C199.382 39.1738 201.886 34.0976 201.886 27.9732H200.386ZM244.99 71.1234L245.855 69.8979L245.844 69.8901L244.99 71.1234ZM242.165 79.0856L241.494 77.7439L241.483 77.7495L242.165 79.0856ZM230.265 79.9418L231.325 78.8811V78.8811L230.265 79.9418ZM229.152 76.9452L227.653 77.0077L227.653 77.0104L229.152 76.9452ZM228.98 72.5788L227.481 72.6344V72.6344L228.98 72.5788ZM228.809 68.3837H227.309V68.4178L227.311 68.4518L228.809 68.3837ZM228.039 65.2159L226.731 65.9513L226.741 65.9696L226.752 65.9877L228.039 65.2159ZM226.583 63.5892L225.974 64.9599L226.015 64.9781L226.056 64.9937L226.583 63.5892ZM216.994 64.0173L216.426 62.629L216.4 62.6399L216.373 62.6518L216.994 64.0173ZM213.398 71.9795L214.854 72.3434L214.857 72.3309L213.398 71.9795ZM212.885 73.8631L211.543 73.1923L211.484 73.3101L211.447 73.4364L212.885 73.8631ZM198.844 75.2329L197.596 74.4009L197.588 74.4125L197.58 74.4243L198.844 75.2329ZM199.357 74.4624L200.605 75.2944L200.641 75.2404L200.673 75.1834L199.357 74.4624ZM210.83 45.5244L209.393 45.0947L209.391 45.0992L210.83 45.5244ZM215.539 21.8089L214.139 22.3474L214.165 22.415L214.197 22.4797L215.539 21.8089ZM230.265 17.6138L229.539 18.9266L229.559 18.9379L229.58 18.9485L230.265 17.6138ZM234.46 23.0932L235.948 22.9038L235.938 22.8316L235.922 22.7607L234.46 23.0932ZM240.795 61.1064L242.256 60.7669L242.249 60.7338L242.239 60.701L240.795 61.1064ZM223.843 39.1888L222.349 39.3134L222.36 39.4507L222.396 39.5835L223.843 39.1888ZM222.388 38.932L221.204 38.0111L221.066 38.189L220.986 38.3996L222.388 38.932ZM224.785 52.8017L225.514 54.1129L225.535 54.1008L225.557 54.0879L224.785 52.8017ZM225.641 51.175H227.141V51.107L227.135 51.0392L225.641 51.175ZM224.1 40.1306L225.557 39.7752L225.553 39.7555L225.547 39.7359L224.1 40.1306ZM244.99 71.1234L244.125 72.3488C244.742 72.784 244.946 73.2322 244.946 73.7775H246.446H247.946C247.946 72.1538 247.18 70.8327 245.855 69.8979L244.99 71.1234ZM246.446 73.7775H244.946C244.946 75.0575 244.129 76.4267 241.494 77.744L242.165 79.0856L242.836 80.4273C245.909 78.8907 247.946 76.7211 247.946 73.7775H246.446ZM242.165 79.0856L241.483 77.7495C238.835 79.1008 236.472 79.726 234.374 79.726V81.226V82.726C237.07 82.726 239.902 81.9242 242.847 80.4218L242.165 79.0856ZM234.374 81.226V79.726C232.673 79.726 231.778 79.3336 231.325 78.8811L230.265 79.9418L229.204 81.0024C230.464 82.2623 232.308 82.726 234.374 82.726V81.226ZM230.265 79.9418L231.325 78.8811C230.988 78.544 230.697 77.9534 230.65 76.8801L229.152 76.9452L227.653 77.0104C227.72 78.5626 228.171 79.9697 229.204 81.0024L230.265 79.9418ZM229.152 76.9452L230.65 76.8828C230.593 75.5155 230.536 74.0624 230.479 72.5233L228.98 72.5788L227.481 72.6344C227.538 74.1775 227.596 75.6353 227.653 77.0077L229.152 76.9452ZM228.98 72.5788L230.479 72.5233C230.422 70.979 230.365 69.5763 230.308 68.3156L228.809 68.3837L227.311 68.4518C227.367 69.7025 227.424 71.0966 227.481 72.6344L228.98 72.5788ZM228.809 68.3837H230.309C230.309 66.9254 230.01 65.5865 229.325 64.4442L228.039 65.2159L226.752 65.9877C227.094 66.5577 227.309 67.3306 227.309 68.3837H228.809ZM228.039 65.2159L229.346 64.4805C229.057 63.9667 228.746 63.5032 228.407 63.1241C228.076 62.7542 227.649 62.387 227.11 62.1847L226.583 63.5892L226.056 64.9937C225.974 64.9627 226.017 64.9522 226.172 65.1245C226.317 65.2877 226.507 65.5519 226.731 65.9513L228.039 65.2159ZM226.583 63.5892L227.192 62.2185C226.673 61.9876 225.947 61.8931 225.247 61.8372C224.477 61.7756 223.491 61.7468 222.302 61.7468V63.2468V64.7468C223.454 64.7468 224.351 64.7751 225.008 64.8276C225.735 64.8858 225.98 64.9626 225.974 64.9599L226.583 63.5892ZM222.302 63.2468V61.7468C219.939 61.7468 217.944 62.0079 216.426 62.629L216.994 64.0173L217.562 65.4056C218.555 64.9994 220.099 64.7468 222.302 64.7468V63.2468ZM216.994 64.0173L216.373 62.6518C215.752 62.934 215.261 63.413 214.869 63.9276C214.471 64.4506 214.114 65.0925 213.786 65.8186C213.131 67.2691 212.52 69.2203 211.94 71.6282L213.398 71.9795L214.857 72.3309C215.418 70.0014 215.977 68.2568 216.52 67.0533C216.792 66.4523 217.041 66.0277 217.257 65.7444C217.363 65.6051 217.451 65.5134 217.516 65.4555C217.582 65.3978 217.616 65.3824 217.615 65.3829L216.994 64.0173ZM213.398 71.9795L211.943 71.6157C211.801 72.183 211.69 72.6133 211.609 72.9119C211.568 73.0622 211.537 73.1695 211.515 73.24C211.504 73.2756 211.498 73.2929 211.497 73.297C211.491 73.3149 211.507 73.2649 211.543 73.1923L212.885 73.8631L214.226 74.5339C214.305 74.3754 214.361 74.1936 214.382 74.1223C214.418 74.0073 214.458 73.8649 214.503 73.7013C214.593 73.372 214.71 72.9176 214.854 72.3433L213.398 71.9795ZM212.885 73.8631L211.447 73.4364C210.754 75.7712 209.608 77.4056 208.069 78.4744C206.517 79.5522 204.423 80.1541 201.669 80.1541V81.6541V83.1541C204.851 83.1541 207.594 82.4574 209.781 80.9383C211.981 79.41 213.474 77.1489 214.323 74.2897L212.885 73.8631ZM201.669 81.6541V80.1541C200.37 80.1541 199.642 79.9531 199.287 79.7425C199.054 79.6048 198.974 79.4809 198.974 79.1712H197.474H195.974C195.974 80.5168 196.593 81.6343 197.759 82.3242C198.801 82.9412 200.172 83.1541 201.669 83.1541V81.6541ZM197.474 79.1712H198.974C198.974 78.3546 199.287 77.3224 200.107 76.0415L198.844 75.2329L197.58 74.4243C196.574 75.9973 195.974 77.5906 195.974 79.1712H197.474ZM198.844 75.2329L200.092 76.065L200.605 75.2944L199.357 74.4624L198.109 73.6303L197.596 74.4009L198.844 75.2329ZM199.357 74.4624L200.673 75.1834C204.963 67.3565 208.824 57.6036 212.268 45.9496L210.83 45.5244L209.391 45.0992C205.987 56.6184 202.199 66.1575 198.042 73.7414L199.357 74.4624ZM210.83 45.5244L212.267 45.9541C214.011 40.1219 215.324 35.415 216.203 31.8417C217.067 28.3292 217.552 25.7581 217.552 24.2918H216.052H214.552C214.552 25.3369 214.167 27.5602 213.29 31.1252C212.428 34.6295 211.13 39.2831 209.393 45.0947L210.83 45.5244ZM216.052 24.2918H217.552C217.552 23.1491 217.351 22.0794 216.88 21.1381L215.539 21.8089L214.197 22.4797C214.411 22.9083 214.552 23.4938 214.552 24.2918H216.052ZM215.539 21.8089L216.939 21.2705C216.667 20.5645 216.611 20.2079 216.611 20.0966H215.111H213.611C213.611 20.7844 213.839 21.5693 214.139 22.3474L215.539 21.8089ZM215.111 20.0966H216.611C216.611 19.2005 216.943 18.626 217.705 18.1828C218.592 17.6673 220.115 17.3158 222.474 17.3158V15.8158V14.3158C219.923 14.3158 217.765 14.6779 216.197 15.5893C214.505 16.573 213.611 18.1389 213.611 20.0966H215.111ZM222.474 15.8158V17.3158C225.3 17.3158 227.636 17.8751 229.539 18.9266L230.265 17.6138L230.99 16.3009C228.555 14.9552 225.697 14.3158 222.474 14.3158V15.8158ZM230.265 17.6138L229.58 18.9485C231.398 19.8807 232.521 21.3323 232.997 23.4256L234.46 23.0932L235.922 22.7607C235.257 19.8313 233.583 17.6299 230.949 16.279L230.265 17.6138ZM234.46 23.0932L232.972 23.2825C235.367 42.1048 237.49 54.8827 239.351 61.5118L240.795 61.1064L242.239 60.701C240.447 54.3166 238.347 41.7523 235.948 22.9038L234.46 23.0932ZM240.795 61.1064L239.334 61.4458C240 64.3106 240.7 66.6489 241.445 68.428C242.163 70.1433 243.02 71.5839 244.137 72.3567L244.99 71.1234L245.844 69.8901C245.476 69.6355 244.892 68.8929 244.212 67.2692C243.559 65.7093 242.904 63.5528 242.256 60.7669L240.795 61.1064ZM223.843 39.1888L225.338 39.0643C225.303 38.6396 225.213 38.1196 224.946 37.6625C224.628 37.1171 224.042 36.6615 223.244 36.6615V38.1615V39.6615C223.066 39.6615 222.862 39.6129 222.673 39.4939C222.495 39.3812 222.398 39.2482 222.355 39.1741C222.314 39.1041 222.31 39.0693 222.319 39.1032C222.326 39.1339 222.339 39.2005 222.349 39.3134L223.843 39.1888ZM223.244 38.1615V36.6615C222.842 36.6615 222.531 36.8052 222.359 36.9023C222.172 37.0071 222.017 37.1319 221.898 37.2392C221.66 37.4536 221.426 37.7253 221.204 38.0111L222.388 38.932L223.572 39.8529C223.657 39.744 223.728 39.6579 223.787 39.5914C223.848 39.5236 223.886 39.4859 223.905 39.469C223.929 39.4478 223.902 39.4763 223.83 39.517C223.791 39.5387 223.725 39.5722 223.634 39.6015C223.542 39.6309 223.409 39.6615 223.244 39.6615V38.1615ZM222.388 38.932L220.986 38.3996C219.806 41.5066 218.911 44.1586 218.309 46.3464C217.714 48.5093 217.378 50.3134 217.378 51.6887H218.878H220.378C220.378 50.7238 220.627 49.2317 221.201 47.1424C221.77 45.078 222.63 42.5217 223.79 39.4644L222.388 38.932ZM218.878 51.6887H217.378C217.378 52.182 217.458 52.7271 217.725 53.2293C218.012 53.7673 218.468 54.1644 219.036 54.3774L219.563 52.9729L220.089 51.5684C220.132 51.5844 220.191 51.6152 220.251 51.6675C220.311 51.7198 220.35 51.7751 220.372 51.8176C220.412 51.8917 220.378 51.8804 220.378 51.6887H218.878ZM219.563 52.9729L219.036 54.3774C219.779 54.6561 220.893 54.7298 222.131 54.7298V53.2298V51.7298C220.858 51.7298 220.259 51.6322 220.089 51.5684L219.563 52.9729ZM222.131 53.2298V54.7298C223.414 54.7298 224.639 54.599 225.514 54.1129L224.785 52.8017L224.057 51.4905C223.904 51.5752 223.36 51.7298 222.131 51.7298V53.2298ZM224.785 52.8017L225.557 54.0879C226.638 53.4391 227.141 52.3714 227.141 51.175H225.641H224.141C224.141 51.3534 224.108 51.4248 224.1 51.4396C224.096 51.4468 224.084 51.4729 224.013 51.5154L224.785 52.8017ZM225.641 51.175L227.135 51.0392C226.677 46.0042 226.156 42.2297 225.557 39.7752L224.1 40.1306L222.643 40.486C223.186 42.7118 223.692 46.3002 224.147 51.3108L225.641 51.175ZM224.1 40.1306L225.547 39.7359L225.291 38.7942L223.843 39.1888L222.396 39.5835L222.653 40.5253L224.1 40.1306ZM245.386 73.9487L243.896 73.783L243.886 73.8656V73.9487H245.386ZM245.472 73.1782L243.992 72.9368L243.985 72.9745L243.981 73.0125L245.472 73.1782ZM246.585 27.2883L245.122 27.6207L245.128 27.6472L245.135 27.6734L246.585 27.2883ZM246.157 25.4048L247.62 25.0723L247.579 24.8958L247.499 24.7339L246.157 25.4048ZM248.982 18.2987L249.759 19.5819L249.809 19.5515L249.857 19.5172L248.982 18.2987ZM270.985 18.6412L270.221 19.9316L270.23 19.9369L270.239 19.942L270.985 18.6412ZM278.177 25.8328L276.872 26.5717L276.872 26.573L278.177 25.8328ZM279.975 65.7296L278.578 65.1825L278.575 65.1912L278.572 65.2L279.975 65.7296ZM275.523 73.5206L276.67 74.4868V74.4868L275.523 73.5206ZM268.417 78.8288L269.044 80.1916L269.056 80.186L268.417 78.8288ZM251.294 79.7705L251.745 78.3402L251.733 78.3363L251.721 78.3327L251.294 79.7705ZM246.756 77.4589L245.664 78.487L245.679 78.5035L245.696 78.5196L246.756 77.4589ZM266.105 26.8602L265.013 27.8883L265.023 27.899L265.033 27.9094L266.105 26.8602ZM261.14 27.5452L262.622 27.7754L262.626 27.7497L262.629 27.7239L261.14 27.5452ZM260.198 64.7022H261.698V64.6428L261.693 64.5836L260.198 64.7022ZM245.386 73.9487L246.877 74.1143L246.963 73.3438L245.472 73.1782L243.981 73.0125L243.896 73.783L245.386 73.9487ZM245.472 73.1782L246.952 73.4195C248.675 62.853 249.54 53.0966 249.54 44.1545H248.04H246.54C246.54 52.9063 245.693 62.499 243.992 72.9368L245.472 73.1782ZM248.04 44.1545H249.54C249.54 36.5363 249.057 30.7527 248.035 26.9032L246.585 27.2883L245.135 27.6734C246.053 31.1297 246.54 36.5904 246.54 44.1545H248.04ZM246.585 27.2883L248.048 26.9559L247.62 25.0723L246.157 25.4048L244.694 25.7372L245.122 27.6207L246.585 27.2883ZM246.157 25.4048L247.499 24.7339C247.34 24.4173 247.229 23.9736 247.229 23.35H245.729H244.229C244.229 24.3246 244.403 25.2507 244.815 26.0756L246.157 25.4048ZM245.729 23.35H247.229C247.229 21.9482 247.917 20.6966 249.759 19.5819L248.982 18.2987L248.205 17.0154C245.709 18.5263 244.229 20.6422 244.229 23.35H245.729ZM248.982 18.2987L249.857 19.5172C251.704 18.1914 254.776 17.4015 259.342 17.4015V15.9015V14.4015C254.547 14.4015 250.713 15.2097 248.107 17.0802L248.982 18.2987ZM259.342 15.9015V17.4015C263.833 17.4015 267.431 18.2782 270.221 19.9316L270.985 18.6412L271.75 17.3507C268.376 15.3512 264.211 14.4015 259.342 14.4015V15.9015ZM270.985 18.6412L270.239 19.942C273.093 21.5807 275.295 23.7861 276.872 26.5717L278.177 25.8328L279.482 25.0939C277.635 21.8294 275.042 19.2404 271.732 17.3403L270.985 18.6412ZM278.177 25.8328L276.872 26.573C280.093 32.2506 281.728 38.8942 281.728 46.5518H283.228H284.728C284.728 38.4561 282.996 31.2871 279.482 25.0927L278.177 25.8328ZM283.228 46.5518H281.728C281.728 53.6531 280.666 59.8539 278.578 65.1825L279.975 65.7296L281.372 66.2768C283.622 60.5324 284.728 53.948 284.728 46.5518H283.228ZM279.975 65.7296L278.572 65.2C277.482 68.0881 276.078 70.5323 274.376 72.5544L275.523 73.5206L276.67 74.4868C278.62 72.1711 280.185 69.4213 281.378 66.2592L279.975 65.7296ZM275.523 73.5206L274.376 72.5544C272.706 74.5369 270.52 76.1814 267.778 77.4715L268.417 78.8288L269.056 80.186C272.136 78.7364 274.687 76.8422 276.67 74.4868L275.523 73.5206ZM268.417 78.8288L267.79 77.466C265.162 78.6748 262.128 79.2979 258.657 79.2979V80.7979V82.2979C262.491 82.2979 265.964 81.6083 269.044 80.1915L268.417 78.8288ZM258.657 80.7979V79.2979C256.04 79.2979 253.742 78.9706 251.745 78.3402L251.294 79.7705L250.842 81.2009C253.183 81.9403 255.794 82.2979 258.657 82.2979V80.7979ZM251.294 79.7705L251.721 78.3327C249.701 77.7321 248.47 77.0514 247.817 76.3983L246.756 77.4589L245.696 78.5196C246.869 79.6929 248.663 80.5532 250.866 81.2083L251.294 79.7705ZM246.756 77.4589L247.848 76.4309C247.205 75.7473 246.886 74.9483 246.886 73.9487H245.386H243.886C243.886 75.6888 244.481 77.2299 245.664 78.487L246.756 77.4589ZM270.044 45.0107H271.544C271.544 40.2441 271.212 36.2604 270.525 33.0917C269.844 29.9515 268.777 27.4461 267.177 25.811L266.105 26.8602L265.033 27.9094C266.059 28.957 266.962 30.8179 267.593 33.7279C268.218 36.6094 268.544 40.3596 268.544 45.0107H270.044ZM266.105 26.8602L267.198 25.8322C266.181 24.7525 264.954 23.9048 263.537 23.9048V25.4048V26.9048C263.717 26.9048 264.203 27.0273 265.013 27.8883L266.105 26.8602ZM263.537 25.4048V23.9048C262.579 23.9048 261.623 24.147 260.868 24.821C260.115 25.4936 259.764 26.4157 259.65 27.3664L261.14 27.5452L262.629 27.7239C262.686 27.2477 262.821 27.0996 262.866 27.0588C262.911 27.0193 263.068 26.9048 263.537 26.9048V25.4048ZM261.14 27.5452L259.657 27.3149C258.726 33.3104 258.27 42.0215 258.27 53.401H259.77H261.27C261.27 42.0638 261.727 33.5378 262.622 27.7754L261.14 27.5452ZM259.77 53.401H258.27C258.27 57.3754 258.414 61.1822 258.702 64.8209L260.198 64.7022L261.693 64.5836C261.411 61.0306 261.27 57.3033 261.27 53.401H259.77ZM260.198 64.7022H258.698C258.698 65.5613 258.914 66.4811 259.608 67.1755C260.302 67.87 261.222 68.0858 262.081 68.0858V66.5858V65.0858C261.685 65.0858 261.663 64.9876 261.729 65.0542C261.796 65.1208 261.698 65.0989 261.698 64.7022H260.198ZM262.081 66.5858V68.0858C263.784 68.0858 265.303 67.4955 266.57 66.3505C267.806 65.2343 268.746 63.6455 269.46 61.7113C270.881 57.8614 271.544 52.2524 271.544 45.0107H270.044H268.544C268.544 52.1524 267.879 57.3309 266.646 60.6727C266.033 62.3344 265.314 63.4424 264.559 64.1242C263.837 64.7771 263.033 65.0858 262.081 65.0858V66.5858Z" fill="white" mask="url(#path-3-outside-1_36_56)"/>
</svg>
